<mxfile host="app.diagrams.net" modified="2023-07-15T10:55:42.196Z" agent="Mozilla/5.0 (X11; Linux x86_64) AppleWebKit/537.36 (KHTML, like Gecko) Chrome/114.0.0.0 Safari/537.36" version="21.6.2" etag="r2v6QpLNT4JKdstIn0Nx" type="github">
  <diagram name="Page-1" id="byZ-UJTM5VJ5GWoX6yj_">
    <mxGraphModel>
      <root>
        <mxCell id="0" />
        <mxCell id="1" parent="0" />
      </root>
    </mxGraphModel>
  </diagram>
</mxfile>
